<svg xmlns="http://www.w3.org/2000/svg" viewBox="0 0 209.11 141.74"><defs><style>.cls-1{fill:#4e4949;}.cls-2,.cls-3{isolation:isolate;}.cls-3,.cls-4{fill:#76af4a;}</style></defs><g id="Layer_2" data-name="Layer 2"><g id="Layer_1-2" data-name="Layer 1"><path class="cls-1" d="M9.45,127.67l.93-.65c.37.38.71.78,1.09,1.14a3.72,3.72,0,0,0,3.44.92,1,1,0,0,0,.87-.92A1,1,0,0,0,14.72,127a3,3,0,0,0-1.64.34c-.06-.65-.61-.85-1-1.18a8.2,8.2,0,0,1-.85-.71,2.6,2.6,0,0,1-.15-3.86,6.29,6.29,0,0,1-.54-1.11A1.68,1.68,0,0,1,12,118.27c.66-.08,1.33-.06,2-.08h1v-1.32H8v8.58H6.69v-2.54l-.35.17a4.25,4.25,0,0,1-3.27.39,2.48,2.48,0,0,1-2-2.3,2.54,2.54,0,0,1,1.82-2.71,5.78,5.78,0,0,1,2.77-.17l.46.07-.08,1-2-.11,0,.1,2.07,2.57a1,1,0,0,0,.6-1c0-1.35,0-2.69,0-4.08H.4v-1.13H41.09a8,8,0,0,1-.33-1.37,2.61,2.61,0,0,1,2.41-2.85,6.58,6.58,0,0,1,5.75,1.87,21.32,21.32,0,0,1,1.8,2.11.54.54,0,0,0,.46.23H80.74a7.4,7.4,0,0,0-1.06-2.57,1.57,1.57,0,0,0-1.65-.54c-.21,0-.41.1-.65.16L77,111.69a3,3,0,0,1,3.61.86,9.83,9.83,0,0,1,1.2,2.88c.07.22.15.3.39.29.46,0,.93,0,1.41,0v1.11H82.05v8.62H80.77v-8.58H78v8.58H76.68v-4c-.7,0-1.36.13-2,.12a9.12,9.12,0,0,1-2-.23,1.21,1.21,0,0,0-1.31.27,21.79,21.79,0,0,0,3.27,3.24l-.86.84a26.82,26.82,0,0,1-4.09-4.42,2.17,2.17,0,0,1-.26-.53,1,1,0,0,1,.16-1.12,1,1,0,0,1,1.12-.19,5.38,5.38,0,0,1,.91.55,3.15,3.15,0,0,0,.34-.61,3.8,3.8,0,0,0,0-2.24c0-.09-.16-.23-.25-.23H67.34v8.61H66.07v-8.58H59.84v3a.83.83,0,0,0,.16-.09,2.48,2.48,0,0,1,2.66-.4A2.17,2.17,0,0,1,64,121.56a5.33,5.33,0,0,1-1,3.3l-1.11-.63a4.43,4.43,0,0,0,.84-2,3.78,3.78,0,0,0,0-1,1.08,1.08,0,0,0-1.5-.88,2.58,2.58,0,0,0-1.24,1,.6.6,0,0,0-.08.38v3.73H58.55v-2.68l-.4.26a3.21,3.21,0,0,1-3.27.29,2.3,2.3,0,0,1-1.42-2c-.21-2,1.19-3,2.91-3.11a16.38,16.38,0,0,1,1.66.1l-.09,1.16a7.6,7.6,0,0,0-.92-.1,5,5,0,0,0-1.16.08,1.47,1.47,0,0,0-1.11,1.9,1.56,1.56,0,0,0,1.77,1.18,3.3,3.3,0,0,0,1.95-1.07.32.32,0,0,0,.08-.21c0-1.44,0-2.88,0-4.31,0,0,0,0,0-.08H51.33v8.59H50.07v-2.54l-.36.18a4,4,0,0,1-3,.42,2.52,2.52,0,0,1-2-2.57,2.59,2.59,0,0,1,2.14-2.61,6.78,6.78,0,0,1,2.69,0l-.07,1.11a9.15,9.15,0,0,0-1-.1,5.9,5.9,0,0,0-1.26.09A1.48,1.48,0,0,0,46,121.18a1.5,1.5,0,0,0,1.56,1.35,3.12,3.12,0,0,0,2.41-1,.33.33,0,0,0,.1-.23c0-1.46,0-2.92,0-4.4H42.59v8.58H41.32v-8.58H38.54v8.58H37.27l0-.6a14.18,14.18,0,0,1-1.51.42,6.57,6.57,0,0,1-5.33-1.49,11,11,0,0,1-2.19-2.33,4,4,0,0,1-.41-.76,1,1,0,0,1,.16-1.12,1,1,0,0,1,1.16-.17A5.48,5.48,0,0,1,30,120a5.84,5.84,0,0,0,.38-1,3.54,3.54,0,0,0-.1-1.91.38.38,0,0,0-.25-.23H25.77l-.07,0v8.48l.09,0a2.06,2.06,0,0,1,1.63,2.12,2.09,2.09,0,0,1-1.72,2,4.86,4.86,0,0,1-4.55-1.23c-.43-.38-.82-.81-1.25-1.25l1-.67c.37.39.72.78,1.1,1.14a3.73,3.73,0,0,0,3.34.94,1.09,1.09,0,0,0,.91-1.48,1.36,1.36,0,0,0-1.37-.63,4.58,4.58,0,0,0-.63.1l-.63.22-.41-1,1.22-.35v-3.73H20.93c0,.25,0,.48,0,.71a.77.77,0,0,1-1.17.72,2.59,2.59,0,0,1-1.41-1.56.69.69,0,0,1,.7-1h.59v-3.6H16.31v2.42l-.42,0c-1.11,0-2.23,0-3.34,0-.48,0-.75.2-.84.52a1.17,1.17,0,0,0,.43,1.1.45.45,0,0,0,.28,0,5.81,5.81,0,0,1,2.78,0,2.1,2.1,0,0,1,1.58,2.79A2.6,2.6,0,0,1,15,125.16l-.22-.51-.18-.48c.23-.12.44-.22.64-.34a1,1,0,0,0-.12-1.7,2.14,2.14,0,0,0-.86-.21,6.83,6.83,0,0,0-1.5.08,1.44,1.44,0,0,0-1,2.28,4.39,4.39,0,0,0,2.13,1.64c.24.11.55,0,.83,0a2.4,2.4,0,0,1,1.51.55,2.1,2.1,0,0,1-.73,3.57,4.5,4.5,0,0,1-3.69-.31A7.49,7.49,0,0,1,9.45,127.67Zm20.23-6.15a6.76,6.76,0,0,0,4.26,2.66,4.75,4.75,0,0,0,3.07-.49.46.46,0,0,0,.24-.28c0-.32,0-.65,0-1l-.37.17a3.63,3.63,0,0,1-2.45.23,2.33,2.33,0,0,1-1.78-2.16A2.21,2.21,0,0,1,34,118.35a4.37,4.37,0,0,1,2.77-.14l-.09,1.07-.35-.07a3,3,0,0,0-1.49,0,1.24,1.24,0,0,0-.88,1.27,1.15,1.15,0,0,0,.89,1.22,2.35,2.35,0,0,0,2.22-.49.68.68,0,0,0,.21-.44c0-1.23,0-2.45,0-3.68,0-.08,0-.17,0-.26H31.52C32.12,119,31.56,120.65,29.68,121.52Zm19.8-5.8.08-.12c-.57-.56-1.09-1.16-1.7-1.68a5.25,5.25,0,0,0-3.9-1.35c-1.25.08-2,.8-1.93,1.9a4.82,4.82,0,0,0,.3,1,.41.41,0,0,0,.47.27h6.68ZM21,116.86v3.57h3.43v-3.57Zm51.94,3.37a7.91,7.91,0,0,0,3.62,0,.39.39,0,0,0,.16-.3c0-.85,0-1.69,0-2.54v-.48H73.18A4,4,0,0,1,72.9,120.23ZM5.21,122.41,3,119.68a1.55,1.55,0,0,0-.63,1.54,1.35,1.35,0,0,0,.85,1.18A2.63,2.63,0,0,0,5.21,122.41Z"/><path class="cls-1" d="M108.5,116.84v8.61h-1.26v-5.09c-.9,0-1.77,0-2.63,0a2.61,2.61,0,0,0-.56.08,1.27,1.27,0,0,0-1.06,1.74,3.48,3.48,0,0,0,.69,1.23,19.84,19.84,0,0,0,1.46,1.44l-.76.83c-.23-.2-.44-.36-.62-.55-.47-.49-1-1-1.39-1.49a2.92,2.92,0,0,1-.56-2.83H99.32v.79c0,.8-.63,1.19-1.32.78a2.32,2.32,0,0,1-1.29-1.87.67.67,0,0,1,.7-.79c.47,0,.94,0,1.41,0h3.3l0,.46a.34.34,0,0,0,.12-.06,3,3,0,0,1,2.06-.82c.81,0,1.63,0,2.44,0h.42v-2.35H94.72v8.59H93.44v-8.58H90.53v.4c0,1.43,0,2.87,0,4.31,0,.4,0,.83-.44,1a1.09,1.09,0,0,1-1.17-.28,2.43,2.43,0,0,1-1-1.46.77.77,0,0,1,.82-1c.16,0,.31,0,.49,0v-3H87.29v-1.12H124.6v1.1H123v8.61h-1.26v-2.77a4.88,4.88,0,0,1-2.58.73,3.15,3.15,0,0,1-2.32-1.12c-.24.19-.46.37-.7.54a4.15,4.15,0,0,1-3.46.68,2.53,2.53,0,0,1-2-2.62,2.57,2.57,0,0,1,2.15-2.57,6.87,6.87,0,0,1,2.67,0l-.08,1.11-1-.11a3,3,0,0,0-1.64.23,1.48,1.48,0,0,0-.83,1.63,1.36,1.36,0,0,0,1.07,1.22,3,3,0,0,0,3.11-1.15.44.44,0,0,0,0-.3c-.08-.34-.17-.67-.27-1,.31-.1.6-.18.87-.29a1.48,1.48,0,0,0,.88-2.21,2.12,2.12,0,0,1-.11-.21.67.67,0,0,0-.72-.44c-2.61,0-5.22,0-7.83,0Zm8.82,3.93a2,2,0,0,0,2.16,1.52,3,3,0,0,0,2-.89.8.8,0,0,0,.23-.51c0-1.23,0-2.47,0-3.7,0-.11,0-.22,0-.33h-3.06C119.53,118.91,118.86,120.24,117.32,120.77Z"/><path class="cls-1" d="M127.51,118.67a1,1,0,0,1-1,1,1,1,0,0,1-.94-1,1,1,0,1,1,1.9,0Z"/><path class="cls-1" d="M127.51,123.64a1,1,0,0,1-1,1,1,1,0,0,1-.94-1,1,1,0,1,1,1.9,0Z"/><g class="cls-2"><rect class="cls-1" y="24.38" width="13.4" height="57.19"/><rect class="cls-1" x="27.7" y="24.38" width="13.4" height="57.19"/><polygon class="cls-1" points="118.11 24.38 114.11 24.38 104.92 24.38 92.1 63.24 79.27 24.38 70.08 24.38 66.08 24.38 56.68 24.38 56.68 81.57 70.08 81.57 70.08 36.5 84.96 81.57 86.04 81.57 98.15 81.57 99.23 81.57 114.11 36.5 114.11 81.57 127.51 81.57 127.51 24.38 118.11 24.38"/></g><g class="cls-2"><path class="cls-1" d="M16.62,93c0,3.19-1.27,5.24-3.8,6.17l5.06,7.11H12.39L8,100H4.87v6.34H.4V86.43H8q4.66,0,6.65,1.57T16.62,93Zm-5.38,2.36a3,3,0,0,0,.83-2.34,2.51,2.51,0,0,0-.85-2.21,5.54,5.54,0,0,0-3-.6H4.87v5.89H8.13A4.82,4.82,0,0,0,11.24,95.39Z"/><path class="cls-1" d="M38.33,106.31,36.47,102H28.09l-1.86,4.29H21.48l8.64-19.88h4.32l8.64,19.88Zm-6-14-2.51,5.77h5Z"/><path class="cls-1" d="M62.27,86.43h4.46v19.88H62.27L52.75,93.86v12.45H48.28V86.43h4.18l9.81,12.8Z"/><path class="cls-1" d="M83.72,102.39A6.59,6.59,0,0,0,89.1,99.8L92,102.73a10.83,10.83,0,0,1-15.63.91,9.75,9.75,0,0,1-3-7.32,9.9,9.9,0,0,1,3-7.39,10.32,10.32,0,0,1,7.46-3,10.57,10.57,0,0,1,8.23,3.72L89.3,92.83A6.52,6.52,0,0,0,84,90.22a6.16,6.16,0,0,0-4.31,1.63,5.69,5.69,0,0,0-1.79,4.41,6,6,0,0,0,1.69,4.45A5.59,5.59,0,0,0,83.72,102.39Z"/><path class="cls-1" d="M110.78,86.43h4.46v19.88h-4.46V98.49h-8v7.82H98.37V86.43h4.46v8.31h8Z"/><path class="cls-1" d="M123.05,86.43h4.46v19.88h-4.46Z"/></g><path class="cls-1" d="M209.11,104.09,205,101.3a9.52,9.52,0,0,0-8.91-9.44,10,10,0,0,0-5.18,1c.75-3.47,2.88-14.46-2.41-25.58-1.81-3.79-4.83-7.12-10.89-13.78-8.84-9.72-10.51-9.61-17-17.11-4.88-5.61-10-11.59-13.54-20.68A57.24,57.24,0,0,1,143.4,0a56.33,56.33,0,0,0,.94,22.81A60.87,60.87,0,0,0,150.64,38c4.3,7.64,6.63,8.29,11,16.26,2.92,5.35,6,11.19,6.29,19.15a38.09,38.09,0,0,1-1.53,11.4c-.49,2-2.33,8.89-8.68,19.32a109.29,109.29,0,0,1-18.47,22.89,105.17,105.17,0,0,1-18.89,14.05,17.79,17.79,0,0,0,10-.77c2.27-.89,3.79-2.13,6.81-4.6a53.92,53.92,0,0,0,7-6.8,52.32,52.32,0,0,0,5.87-8.51,29.33,29.33,0,0,0,17.36.59,28.75,28.75,0,0,0,10.39-5.53,34.59,34.59,0,0,0,8.76-10.57,9.91,9.91,0,0,0,17.49.24Z"/><path class="cls-3" d="M150.51,123.53a37.95,37.95,0,0,1-17.32,18,13.34,13.34,0,0,0,5.19-.08,13.54,13.54,0,0,0,6.73-3.71c2-2.06,2.8-4.18,3.78-6.93A29.73,29.73,0,0,0,150.51,123.53Z"/><path class="cls-4" d="M152.47,124a22.62,22.62,0,0,1-7.24,16.73,11.3,11.3,0,0,0,5.49-3.41,11.18,11.18,0,0,0,2.51-5.06A13.49,13.49,0,0,0,152.47,124Z"/><path class="cls-4" d="M141,36.26a60.72,60.72,0,0,0,5.79,8.42c3.54,4.32,5.26,5.18,8.59,9.45a37.63,37.63,0,0,1,5.9,9.51,30.61,30.61,0,0,1,1.91,14.68,29.46,29.46,0,0,0-4.08-10.66c-1.18-1.85-4-4.83-9.7-10.72-5.11-5.31-5.58-5.8-6.26-7C140.4,45.23,140.48,40,141,36.26Z"/><path class="cls-4" d="M142.4,55.79c1.33,1.64,3.37,4.09,6.07,6.89,4.74,4.94,6,5.25,7.91,8.3a27.17,27.17,0,0,1,3.77,10.66,31.73,31.73,0,0,1,.32,7.27,22.7,22.7,0,0,0-3.64-8.36c-2-2.82-3.32-3.12-7.72-7.72-3-3.07-4.42-4.61-5.43-6.7A17.43,17.43,0,0,1,142.4,55.79Z"/><path class="cls-4" d="M144.51,72.89c1.12,1.4,2.84,3.51,5,6,3.27,3.7,4.19,4.4,5.11,5.94,1.3,2.19,2.41,5.79,1.08,11.81a12.83,12.83,0,0,0-2.17-5.24c-1.93-2.69-3.65-2.69-6.12-5.8a15.22,15.22,0,0,1-2.81-5.17A14.39,14.39,0,0,1,144.51,72.89Z"/></g></g></svg>